<?xml version="1.0" encoding="UTF-8"?>
<!DOCTYPE svg PUBLIC "-//W3C//DTD SVG 1.1//EN" "http://www.w3.org/Graphics/SVG/1.1/DTD/svg11.dtd">
<svg xmlns="http://www.w3.org/2000/svg" version="1.1" width="128px" height="128px" style="shape-rendering:geometricPrecision; text-rendering:geometricPrecision; image-rendering:optimizeQuality; fill-rule:evenodd; clip-rule:evenodd" xmlns:xlink="http://www.w3.org/1999/xlink">
<g><path style="opacity:0.765" fill="#f88e18" d="M 30.5,10.5 C 34.1612,10.3501 35.1612,11.8501 33.5,15C 29.7071,15.4866 28.7071,13.9866 30.5,10.5 Z"/></g>
<g><path style="opacity:0.804" fill="#f99318" d="M 82.5,10.5 C 83.5,10.5 84.5,10.5 85.5,10.5C 85.5,12.1667 85.5,13.8333 85.5,15.5C 81.7162,15.4747 80.7162,13.8081 82.5,10.5 Z"/></g>
<g><path style="opacity:0.973" fill="#0bc665" d="M 113.5,31.5 C 108.244,35.4146 103.244,39.748 98.5,44.5C 95.5157,42.0164 92.6824,39.3497 90,36.5C 89.1751,34.2992 89.6751,32.4659 91.5,31C 94.1667,31.6667 96.8333,32.3333 99.5,33C 102.704,29.9641 105.704,26.7974 108.5,23.5C 110.296,22.2073 111.963,20.7073 113.5,19C 118.496,18.3357 120.33,20.5023 119,25.5C 116.96,27.3702 115.127,29.3702 113.5,31.5 Z"/></g>
<g><path style="opacity:0.924" fill="#ffd400" d="M 14.5,19.5 C 25.5659,19.7285 28.2326,24.5619 22.5,34C 15.8835,36.512 11.5502,34.3454 9.5,27.5C 10.1935,24.0896 11.8601,21.4229 14.5,19.5 Z"/></g>
<g><path style="opacity:0.978" fill="#404852" d="M 82.5,26.5 C 78.3571,37.7408 81.3571,46.4075 91.5,52.5C 90.1098,65.3024 83.4431,73.9691 71.5,78.5C 65.1667,78.5 58.8333,78.5 52.5,78.5C 32.4876,68.2973 27.3209,52.964 37,32.5C 44.8299,21.842 55.3299,17.6753 68.5,20C 73.5738,21.3713 78.2405,23.538 82.5,26.5 Z"/></g>
<g><path style="opacity:0.981" fill="#303a52" d="M 108.5,23.5 C 105.704,26.7974 102.704,29.9641 99.5,33C 96.8333,32.3333 94.1667,31.6667 91.5,31C 89.6751,32.4659 89.1751,34.2992 90,36.5C 92.6824,39.3497 95.5157,42.0164 98.5,44.5C 103.244,39.748 108.244,35.4146 113.5,31.5C 113.99,46.6763 106.657,53.6763 91.5,52.5C 81.3571,46.4075 78.3571,37.7408 82.5,26.5C 90.356,18.479 99.0226,17.479 108.5,23.5 Z"/></g>
<g><path style="opacity:1" fill="#92a4b3" d="M 74.5,44.5 C 66.5,44.5 58.5,44.5 50.5,44.5C 49.419,30.7337 55.419,25.567 68.5,29C 73.5239,32.8921 75.5239,38.0588 74.5,44.5 Z"/></g>
<g><path style="opacity:1" fill="#404852" d="M 59.5,29.5 C 68.8307,29.502 72.8307,34.1686 71.5,43.5C 65.5,43.5 59.5,43.5 53.5,43.5C 52.2682,37.3096 54.2682,32.6429 59.5,29.5 Z"/></g>
<g><path style="opacity:1" fill="#cbd7e2" d="M 50.5,44.5 C 58.5,44.5 66.5,44.5 74.5,44.5C 75.8222,47.7681 76.4888,51.4348 76.5,55.5C 76.3333,59.1667 76.1667,62.8333 76,66.5C 66.6667,67.8333 57.3333,67.8333 48,66.5C 47.3333,59.5 47.3333,52.5 48,45.5C 48.6708,44.7476 49.5041,44.4142 50.5,44.5 Z"/></g>
<g><path style="opacity:0.775" fill="#f88f19" d="M 11.5,45.5 C 12.8333,45.5 14.1667,45.5 15.5,45.5C 15.5,46.8333 15.5,48.1667 15.5,49.5C 14.1667,49.5 12.8333,49.5 11.5,49.5C 11.5,48.1667 11.5,46.8333 11.5,45.5 Z"/></g>
<g><path style="opacity:1" fill="#a0b5c5" d="M 53.5,49.5 C 59.5,49.5 65.5,49.5 71.5,49.5C 71.5,53.8333 71.5,58.1667 71.5,62.5C 65.5,62.5 59.5,62.5 53.5,62.5C 53.5,58.1667 53.5,53.8333 53.5,49.5 Z"/></g>
<g><path style="opacity:0.791" fill="#f88f19" d="M 113.5,50.5 C 114.833,50.5 116.167,50.5 117.5,50.5C 117.5,51.8333 117.5,53.1667 117.5,54.5C 116.167,54.5 114.833,54.5 113.5,54.5C 113.5,53.1667 113.5,51.8333 113.5,50.5 Z"/></g>
<g><path style="opacity:0.898" fill="#ffd400" d="M 105.5,61.5 C 113.605,60.5603 115.938,63.727 112.5,71C 103.751,72.4259 101.418,69.2592 105.5,61.5 Z"/></g>
<g><path style="opacity:0.798" fill="#f88f17" d="M 23.5,66.5 C 25.6648,66.1159 27.3315,66.7826 28.5,68.5C 27.3315,70.2174 25.6648,70.8841 23.5,70.5C 23.5,69.1667 23.5,67.8333 23.5,66.5 Z"/></g>
<g><path style="opacity:0.799" fill="#f89319" d="M 93.5,66.5 C 94.8734,66.3433 96.2068,66.51 97.5,67C 98.6745,69.8288 97.6745,70.8288 94.5,70C 93.6634,68.9887 93.33,67.8221 93.5,66.5 Z"/></g>
<g><path style="opacity:0.967" fill="#767e8d" d="M 52.5,78.5 C 58.8333,78.5 65.1667,78.5 71.5,78.5C 81.8387,78.3335 92.172,78.5002 102.5,79C 113.878,83.2486 118.378,91.4153 116,103.5C 113.631,110.536 108.798,114.703 101.5,116C 75.1667,116.667 48.8333,116.667 22.5,116C 7.01722,109.552 3.51722,99.0517 12,84.5C 14.6692,81.8358 17.8359,80.0024 21.5,79C 31.828,78.5002 42.1613,78.3335 52.5,78.5 Z"/></g>
<g><path style="opacity:1" fill="#b5daf4" d="M 24.5,88.5 C 26.0672,89.6808 26.9005,91.3474 27,93.5C 28.2408,91.5794 29.7408,91.246 31.5,92.5C 30.6872,93.8139 29.6872,94.9805 28.5,96C 35.1667,97 35.1667,98 28.5,99C 30.6157,100.171 31.2824,101.671 30.5,103.5C 29.1861,102.687 28.0195,101.687 27,100.5C 26.5065,102.134 26.3398,103.801 26.5,105.5C 25.5,105.5 24.5,105.5 23.5,105.5C 23.6567,104.127 23.49,102.793 23,101.5C 21.7592,103.421 20.2592,103.754 18.5,102.5C 19.3128,101.186 20.3128,100.019 21.5,99C 14.9216,98.1146 14.9216,96.948 21.5,95.5C 20.6872,94.1861 19.6872,93.0195 18.5,92C 20.3668,91.2888 21.8668,91.7888 23,93.5C 23.3519,91.7525 23.8519,90.0858 24.5,88.5 Z"/></g>
<g><path style="opacity:1" fill="#b5daf3" d="M 44.5,88.5 C 46.0672,89.6808 46.9005,91.3474 47,93.5C 52.1018,90.7009 52.6018,91.3675 48.5,95.5C 55.0784,96.948 55.0784,98.1146 48.5,99C 49.6872,100.019 50.6872,101.186 51.5,102.5C 49.7408,103.754 48.2408,103.421 47,101.5C 46.51,102.793 46.3433,104.127 46.5,105.5C 45.5,105.5 44.5,105.5 43.5,105.5C 43.6567,104.127 43.49,102.793 43,101.5C 41.7592,103.421 40.2592,103.754 38.5,102.5C 39.3128,101.186 40.3128,100.019 41.5,99C 34.9216,98.1146 34.9216,96.948 41.5,95.5C 40.2634,94.7193 39.2634,93.7193 38.5,92.5C 40.2592,91.246 41.7592,91.5794 43,93.5C 43.3519,91.7525 43.8519,90.0858 44.5,88.5 Z"/></g>
<g><path style="opacity:1" fill="#b8dffa" d="M 63.5,88.5 C 65.1644,89.9488 65.9977,91.9488 66,94.5C 71.0635,89.3347 71.5635,89.8347 67.5,96C 74.6346,96.5852 74.9679,97.7519 68.5,99.5C 70.7485,104.325 69.9152,104.658 66,100.5C 65,107.167 64,107.167 63,100.5C 61.8293,102.616 60.3293,103.282 58.5,102.5C 59.3128,101.186 60.3128,100.019 61.5,99C 54.8333,98 54.8333,97 61.5,96C 57.3416,92.0848 57.675,91.2515 62.5,93.5C 63.4519,91.9547 63.7852,90.288 63.5,88.5 Z"/></g>
<g><path style="opacity:1" fill="#b7def8" d="M 83.5,88.5 C 85.1171,89.5893 85.9504,91.256 86,93.5C 87.2408,91.5794 88.7408,91.246 90.5,92.5C 89.6872,93.8139 88.6872,94.9805 87.5,96C 94.1667,97 94.1667,98 87.5,99C 89.6157,100.171 90.2824,101.671 89.5,103.5C 88.1861,102.687 87.0195,101.687 86,100.5C 85,107.167 84,107.167 83,100.5C 81.6766,103.059 79.8433,103.725 77.5,102.5C 78.3128,101.186 79.3128,100.019 80.5,99C 73.9216,98.1146 73.9216,96.948 80.5,95.5C 78.1944,90.6646 79.0278,90.3313 83,94.5C 83.4955,92.5273 83.6621,90.5273 83.5,88.5 Z"/></g>
</svg>
