<?xml version="1.0" standalone="no"?>
<!DOCTYPE svg PUBLIC "-//W3C//DTD SVG 20010904//EN"
 "http://www.w3.org/TR/2001/REC-SVG-20010904/DTD/svg10.dtd">
<svg version="1.0" xmlns="http://www.w3.org/2000/svg"
 width="128.000000pt" height="128.000000pt" viewBox="0 0 128.000000 128.000000"
 preserveAspectRatio="xMidYMid meet">

<g transform="translate(0.000000,128.000000) scale(0.100000,-0.100000)"
fill="#000000" stroke="none">
<path d="M12 1268 c-7 -7 -12 -19 -12 -28 0 -8 77 -92 170 -185 l170 -170 -81
-5 c-64 -4 -84 -9 -93 -22 -8 -13 -8 -23 0 -35 10 -16 30 -18 149 -21 94 -2
142 1 151 9 12 9 14 41 12 152 -3 120 -5 141 -20 151 -13 8 -23 8 -35 0 -14
-9 -19 -29 -23 -93 l-5 -81 -170 170 c-93 93 -177 170 -185 170 -9 0 -21 -5
-28 -12z"/>
<path d="M1055 1110 l-170 -170 -5 81 c-4 64 -9 84 -22 93 -13 8 -23 8 -35 0
-16 -10 -18 -31 -21 -151 -2 -111 0 -143 12 -152 9 -8 57 -11 151 -9 119 3
139 5 149 21 8 12 8 22 0 35 -9 13 -29 18 -93 22 l-81 5 170 170 c93 93 170
177 170 185 0 20 -20 40 -40 40 -8 0 -92 -77 -185 -170z"/>
<path d="M492 668 c-6 -6 -12 -20 -12 -29 0 -34 24 -40 165 -37 119 3 139 5
149 21 8 12 8 22 0 35 -10 15 -31 17 -150 20 -100 2 -143 -1 -152 -10z"/>
<path d="M172 468 c-7 -7 -12 -19 -12 -28 0 -31 23 -40 104 -40 l81 0 -173
-173 c-94 -95 -172 -179 -172 -188 0 -19 20 -39 40 -39 8 0 92 77 185 170
l170 170 5 -81 c4 -64 9 -84 23 -93 12 -8 22 -8 35 0 15 10 17 30 20 149 2 93
-1 142 -9 151 -15 19 -279 20 -297 2z"/>
<path d="M811 466 c-8 -9 -11 -57 -9 -151 3 -119 5 -139 21 -149 12 -8 22 -8
35 0 13 9 18 29 22 93 l5 81 170 -170 c93 -93 177 -170 185 -170 20 0 40 20
40 40 0 8 -77 92 -170 185 l-170 170 81 5 c64 4 84 9 93 23 8 12 8 22 0 35
-10 15 -31 17 -151 20 -111 2 -143 0 -152 -12z"/>
</g>
</svg>
