<?xml version="1.0" standalone="no"?>
<!DOCTYPE svg PUBLIC "-//W3C//DTD SVG 20010904//EN"
 "http://www.w3.org/TR/2001/REC-SVG-20010904/DTD/svg10.dtd">
<svg version="1.0" xmlns="http://www.w3.org/2000/svg"
 width="128.000000pt" height="128.000000pt" viewBox="0 0 128.000000 128.000000"
 preserveAspectRatio="xMidYMid meet">

<g transform="translate(0.000000,128.000000) scale(0.100000,-0.100000)"
fill="#000000" stroke="none">
<path d="M11 1266 c-8 -9 -11 -52 -9 -132 l3 -119 25 0 c24 0 25 2 28 79 l3
80 149 -149 c106 -106 153 -146 164 -142 43 17 29 38 -119 187 l-149 149 80 3
c77 3 79 4 79 28 l0 25 -121 3 c-95 2 -124 0 -133 -12z"/>
<path d="M1014 1265 c-14 -36 3 -45 83 -45 l78 0 -149 -149 c-149 -150 -163
-171 -120 -188 11 -4 58 36 164 142 l149 149 3 -80 c3 -77 4 -79 28 -79 l25 0
3 119 c2 78 -1 123 -9 132 -17 21 -247 20 -255 -1z"/>
<path d="M444 836 l-34 -34 0 -162 0 -162 34 -34 34 -34 162 0 162 0 34 34 34
34 0 162 0 162 -34 34 -34 34 -162 0 -162 0 -34 -34z m350 -42 c23 -23 23
-285 0 -308 -23 -23 -285 -23 -308 0 -23 23 -23 285 0 308 23 23 285 23 308 0z"/>
<path d="M210 255 l-145 -145 -5 77 c-5 75 -6 78 -30 78 l-25 0 -3 -121 c-2
-95 0 -124 12 -133 9 -8 52 -11 132 -9 l119 3 0 25 c0 24 -2 25 -79 28 l-80 3
149 150 c128 127 148 152 139 167 -6 9 -17 18 -25 20 -8 1 -79 -63 -159 -143z"/>
<path d="M892 388 c-7 -7 -12 -17 -12 -23 0 -5 65 -75 145 -155 l145 -145 -77
-5 c-75 -5 -78 -6 -78 -30 l0 -25 121 -3 c95 -2 124 0 133 12 8 9 11 52 9 132
l-3 119 -25 0 c-24 0 -25 -3 -30 -78 l-5 -77 -145 145 c-80 80 -150 145 -155
145 -6 0 -16 -5 -23 -12z"/>
</g>
</svg>
