<?xml version="1.0" encoding="UTF-8"?>
<!DOCTYPE svg PUBLIC "-//W3C//DTD SVG 1.1//EN" "http://www.w3.org/Graphics/SVG/1.1/DTD/svg11.dtd">
<svg xmlns="http://www.w3.org/2000/svg" version="1.1" width="128px" height="128px" style="shape-rendering:geometricPrecision; text-rendering:geometricPrecision; image-rendering:optimizeQuality; fill-rule:evenodd; clip-rule:evenodd" xmlns:xlink="http://www.w3.org/1999/xlink">
<g><path style="opacity:0.792" fill="#000000" d="M 61.5,-0.5 C 62.8333,-0.5 64.1667,-0.5 65.5,-0.5C 66.5941,1.61208 67.5941,3.77875 68.5,6C 79.1598,6.81056 80.1598,10.3106 71.5,16.5C 74.6012,25.6312 71.9346,27.6312 63.5,22.5C 55.0654,27.6312 52.3988,25.6312 55.5,16.5C 46.8402,10.3106 47.8402,6.81056 58.5,6C 59.4059,3.77875 60.4059,1.61208 61.5,-0.5 Z M 62.5,9.5 C 64.3716,10.5114 66.3716,11.3448 68.5,12C 66.9544,13.4396 66.121,15.2729 66,17.5C 64.3333,16.1667 62.6667,16.1667 61,17.5C 60.879,15.2729 60.0456,13.4396 58.5,12C 60.3197,11.7996 61.653,10.9663 62.5,9.5 Z"/></g>
<g><path style="opacity:0.798" fill="#000000" d="M 33.5,4.5 C 34.8734,4.34332 36.2068,4.50999 37.5,5C 38.683,11.0136 42.3497,13.847 48.5,13.5C 48.8333,14.1667 49.1667,14.8333 49.5,15.5C 47.6613,17.8378 45.6613,20.0045 43.5,22C 44.3479,24.7695 44.6813,27.6029 44.5,30.5C 41.0283,30.8738 38.0283,29.8738 35.5,27.5C 27.0374,32.8979 24.3708,31.0646 27.5,22C 25.9571,20.1217 24.1238,18.6217 22,17.5C 21.3333,16.1667 21.3333,14.8333 22,13.5C 24.4607,12.7819 26.9607,12.1153 29.5,11.5C 31.0981,9.30207 32.4314,6.96874 33.5,4.5 Z M 34.5,14.5 C 36.1887,15.9307 38.1887,16.7641 40.5,17C 39.1341,18.5998 38.1341,20.4332 37.5,22.5C 35.9579,21.2532 34.4579,21.2532 33,22.5C 32.8371,20.324 32.0037,18.4907 30.5,17C 32.437,16.8784 33.7703,16.045 34.5,14.5 Z"/></g>
<g><path style="opacity:0.798" fill="#000000" d="M 89.5,4.5 C 90.8734,4.34332 92.2068,4.50999 93.5,5C 94.7079,7.25029 96.0413,9.41696 97.5,11.5C 99.7759,12.2132 102.109,12.7132 104.5,13C 105.554,14.3876 105.72,15.8876 105,17.5C 102.876,18.6217 101.043,20.1217 99.5,22C 102.629,31.0646 99.9626,32.8979 91.5,27.5C 88.9717,29.8738 85.9717,30.8738 82.5,30.5C 82.3187,27.6029 82.6521,24.7695 83.5,22C 81.3387,20.0045 79.3387,17.8378 77.5,15.5C 77.8333,14.8333 78.1667,14.1667 78.5,13.5C 84.8838,13.7804 88.5504,10.7804 89.5,4.5 Z M 91.5,14.5 C 92.8304,15.8321 94.4971,16.6655 96.5,17C 94.9963,18.4907 94.1629,20.324 94,22.5C 92.5421,21.2532 91.0421,21.2532 89.5,22.5C 88.8659,20.4332 87.8659,18.5998 86.5,17C 88.6526,16.9005 90.3192,16.0672 91.5,14.5 Z"/></g>
<g><path style="opacity:0.795" fill="#000000" d="M 62.5,25.5 C 74.159,27.6503 77.4924,34.1503 72.5,45C 74.7272,46.7064 76.8939,48.5397 79,50.5C 80.4866,49.8448 81.6533,48.8448 82.5,47.5C 80.2075,34.9616 85.0408,30.9616 97,35.5C 100.087,39.581 100.254,43.7477 97.5,48C 103.023,50.8832 105.523,55.3832 105,61.5C 104.167,62.3333 103.333,63.1667 102.5,64C 96.1754,64.4995 89.8421,64.6662 83.5,64.5C 83.8541,67.9612 82.5208,70.4612 79.5,72C 68.8333,72.6667 58.1667,72.6667 47.5,72C 44.4792,70.4612 43.1459,67.9612 43.5,64.5C 37.1579,64.6662 30.8246,64.4995 24.5,64C 20.7844,60.4585 20.6177,56.6251 24,52.5C 25.5429,50.6217 27.3762,49.1217 29.5,48C 25.7633,36.8287 29.7633,32.162 41.5,34C 45.5699,37.7105 46.5699,42.2105 44.5,47.5C 45.3467,48.8448 46.5134,49.8448 48,50.5C 50.1061,48.5397 52.2728,46.7064 54.5,45C 49.7562,35.2275 52.4229,28.7275 62.5,25.5 Z M 62.5,30.5 C 70.0119,32.7689 71.3452,36.9356 66.5,43C 59.6667,44.1667 56.8333,41.3333 58,34.5C 59.3968,32.9297 60.8968,31.5964 62.5,30.5 Z M 36.5,37.5 C 40.1477,38.5002 41.3144,40.8336 40,44.5C 36.456,47.3196 33.956,46.4863 32.5,42C 33.3441,39.9933 34.6774,38.4933 36.5,37.5 Z M 89.5,37.5 C 95.9281,40.2565 96.0948,43.2565 90,46.5C 87.7095,45.8759 86.5428,44.3759 86.5,42C 86.5572,39.7911 87.5572,38.2911 89.5,37.5 Z M 61.5,48.5 C 73.263,49.413 78.5963,55.5796 77.5,67C 67.9223,67.8176 58.4223,67.6509 49,66.5C 48.2772,57.0626 52.4439,51.0626 61.5,48.5 Z M 33.5,51.5 C 37.5164,50.8999 41.0164,51.8999 44,54.5C 44.6667,55.8333 44.6667,57.1667 44,58.5C 38.2496,59.6406 32.4163,59.8072 26.5,59C 27.4601,57.5806 28.2935,56.0806 29,54.5C 30.6516,53.6006 32.1516,52.6006 33.5,51.5 Z M 86.5,51.5 C 93.0441,50.604 97.7107,53.104 100.5,59C 94.8333,59.6667 89.1667,59.6667 83.5,59C 81.8527,55.4707 82.8527,52.9707 86.5,51.5 Z"/></g>
<g><path style="opacity:0.773" fill="#000000" d="M 30.5,127.5 C 28.1667,127.5 25.8333,127.5 23.5,127.5C 16.8281,116.648 10.3281,105.648 4,94.5C 3.33333,92.1667 3.33333,89.8333 4,87.5C 7.71083,83.5561 12.2108,81.7228 17.5,82C 19.019,83.3513 20.3523,84.8513 21.5,86.5C 27.8333,83 34.1667,79.5 40.5,76C 42.9088,75.0653 45.4088,74.5653 48,74.5C 57.9462,76.9263 67.7796,79.7597 77.5,83C 79.9405,86.0114 81.1072,89.5114 81,93.5C 89.7512,88.2072 98.5846,83.0405 107.5,78C 119.595,73.7839 124.762,77.9506 123,90.5C 108.422,100.876 93.2558,110.376 77.5,119C 65.8181,119.25 54.4848,117.25 43.5,113C 40.947,112.149 38.6137,112.482 36.5,114C 38.282,116.243 38.782,118.743 38,121.5C 35.5216,123.639 33.0216,125.639 30.5,127.5 Z M 44.5,79.5 C 46.8568,79.3367 49.1902,79.5034 51.5,80C 58.638,82.9348 65.9714,85.2682 73.5,87C 76.8465,92.6698 75.1798,94.6698 68.5,93C 64.4651,91.9326 60.4651,90.7659 56.5,89.5C 53.9194,91.3259 53.9194,93.1593 56.5,95C 62.8727,97.0515 69.3727,98.5515 76,99.5C 78.2527,99.3687 80.4194,98.8687 82.5,98C 92.0059,92.4129 101.673,87.0795 111.5,82C 117.486,80.984 119.486,83.3173 117.5,89C 104.333,96.7492 91.3328,104.749 78.5,113C 76.2983,114.022 73.9649,114.522 71.5,114.5C 60.546,112.387 49.7127,109.72 39,106.5C 37.018,106.99 35.3513,107.99 34,109.5C 30.699,103.731 27.5323,97.8974 24.5,92C 30.7897,87.2063 37.4563,83.0397 44.5,79.5 Z M 13.5,86.5 C 15.0744,86.9371 16.2411,87.9371 17,89.5C 22.1198,99.5757 27.6198,109.409 33.5,119C 31.8333,120 30.1667,121 28.5,122C 27.365,122.749 26.365,122.583 25.5,121.5C 20,111.833 14.5,102.167 9,92.5C 8.25061,91.365 8.41728,90.365 9.5,89.5C 11.261,88.9649 12.5943,87.9649 13.5,86.5 Z"/></g>
<g><path style="opacity:0.632" fill="#000000" d="M 11.5,90.5 C 13.1667,90.5 14.8333,90.5 16.5,90.5C 17.1693,94.6759 15.6693,96.0093 12,94.5C 11.51,93.2068 11.3433,91.8734 11.5,90.5 Z"/></g>
</svg>
