<?xml version="1.0" standalone="no"?>
<!DOCTYPE svg PUBLIC "-//W3C//DTD SVG 20010904//EN"
 "http://www.w3.org/TR/2001/REC-SVG-20010904/DTD/svg10.dtd">
<svg version="1.0" xmlns="http://www.w3.org/2000/svg"
 width="128.000000pt" height="128.000000pt" viewBox="0 0 128.000000 128.000000"
 preserveAspectRatio="xMidYMid meet">

<g transform="translate(0.000000,128.000000) scale(0.100000,-0.100000)"
fill="#000000" stroke="none">
<path d="M17 1262 c-10 -10 -17 -28 -17 -39 0 -34 30 -51 103 -55 104 -6 103
-3 186 -332 39 -153 71 -284 71 -291 0 -7 -31 -31 -70 -54 -76 -46 -100 -78
-100 -136 0 -46 23 -87 64 -111 29 -18 60 -19 461 -22 474 -3 477 -2 483 55 6
63 7 63 -470 63 -484 0 -481 -1 -354 69 l73 41 162 0 c173 0 213 9 226 50 6
18 15 20 98 20 206 1 209 4 287 313 34 130 58 242 55 247 -4 6 -179 10 -470
10 l-464 0 -13 42 c-17 56 -82 123 -133 137 -66 18 -159 14 -178 -7z m183 -35
c30 -15 34 -44 5 -38 -11 2 -42 5 -70 7 -75 7 -95 13 -95 29 0 19 123 21 160
2z m171 -407 c39 -157 77 -288 83 -292 6 -4 87 -8 180 -8 149 0 167 -2 156
-15 -10 -12 -43 -15 -182 -15 l-169 0 -80 -46 c-97 -56 -114 -80 -85 -120 14
-18 33 -19 453 -24 380 -4 438 -7 438 -20 0 -13 -56 -15 -442 -15 l-441 0 -27
25 c-22 20 -25 32 -23 69 3 40 8 49 45 76 23 16 62 42 87 57 l45 26 -75 294
c-41 161 -79 304 -84 317 -8 17 -7 27 2 38 11 14 15 10 29 -23 10 -22 50 -167
90 -324z m134 183 c3 -27 9 -58 12 -71 5 -22 4 -23 -63 -20 l-68 3 -12 40 c-6
22 -14 52 -18 68 l-6 27 74 0 74 0 7 -47z m179 16 c3 -17 6 -49 6 -70 l0 -39
-45 0 c-32 0 -45 -4 -45 -14 0 -17 21 -26 59 -26 26 0 29 -4 35 -46 11 -86 13
-84 -53 -84 l-58 0 -17 108 c-9 59 -19 128 -22 155 l-7 47 70 0 71 0 6 -31z
m182 -6 c-3 -21 -6 -53 -6 -70 l0 -33 -64 0 -63 0 -7 38 c-3 20 -6 52 -6 70
l0 32 76 0 77 0 -7 -37z m179 -10 c-14 -97 -10 -93 -81 -93 l-64 0 0 63 c0 35
3 67 7 70 3 4 38 7 76 7 l69 0 -7 -47z m176 -20 l-17 -68 -67 -3 c-37 -2 -67
0 -67 4 0 4 5 36 11 71 l11 63 73 0 73 0 -17 -67z m-687 -159 c11 -86 12 -84
-49 -84 l-54 0 -10 38 c-5 20 -13 49 -17 65 l-6 27 65 0 64 0 7 -46z m326 27
c0 -10 -3 -39 -6 -65 l-7 -46 -52 0 c-61 0 -65 6 -65 81 l0 49 65 0 c57 0 65
-2 65 -19z m156 -27 c-3 -26 -6 -55 -6 -65 0 -16 -8 -19 -60 -19 l-60 0 0 49
c0 77 4 81 72 81 l61 0 -7 -46z m170 29 c-3 -10 -10 -39 -17 -65 l-11 -48 -58
0 -57 0 8 48 c4 26 8 55 8 65 1 14 11 17 67 17 58 0 65 -2 60 -17z m-632 -170
c2 -10 8 -42 11 -71 l7 -53 -48 3 c-47 3 -49 4 -60 43 -29 103 -31 95 30 95
44 0 56 -4 60 -17z m146 -7 c0 -13 3 -44 6 -70 l7 -46 -51 0 -50 0 -11 63 c-6
35 -11 67 -11 70 0 4 25 7 55 7 51 0 55 -2 55 -24z m150 -15 c0 -21 -3 -53 -6
-70 -6 -31 -8 -32 -53 -29 l-46 3 -3 68 -3 67 56 0 55 0 0 -39z m147 17 c-3
-13 -9 -44 -12 -70 l-7 -48 -49 0 c-49 0 -49 0 -49 33 0 17 3 49 6 70 l7 37
54 0 c52 0 55 -1 50 -22z m138 -25 c-17 -57 -39 -80 -84 -89 l-33 -7 7 64 c4
35 9 67 12 72 2 4 28 7 58 7 l54 0 -14 -47z"/>
<path d="M388 175 c-57 -32 -65 -99 -19 -146 37 -37 79 -38 120 -3 81 68 -9
200 -101 149z m82 -45 c24 -24 25 -38 4 -68 -17 -24 -62 -30 -82 -10 -18 18
-15 75 6 87 26 16 50 13 72 -9z"/>
<path d="M417 104 c-9 -10 2 -24 19 -24 8 0 14 7 14 15 0 15 -21 21 -33 9z"/>
<path d="M1031 176 c-74 -42 -61 -153 20 -171 65 -14 128 43 114 104 -13 59
-86 95 -134 67z m81 -43 c35 -31 10 -93 -38 -93 -48 0 -70 55 -37 92 20 22 51
23 75 1z"/>
<path d="M1060 95 c0 -8 7 -15 15 -15 8 0 15 7 15 15 0 8 -7 15 -15 15 -8 0
-15 -7 -15 -15z"/>
</g>
</svg>
