<?xml version="1.0" encoding="UTF-8"?>
<!DOCTYPE svg PUBLIC "-//W3C//DTD SVG 1.1//EN" "http://www.w3.org/Graphics/SVG/1.1/DTD/svg11.dtd">
<svg xmlns="http://www.w3.org/2000/svg" version="1.1" width="128px" height="128px" style="shape-rendering:geometricPrecision; text-rendering:geometricPrecision; image-rendering:optimizeQuality; fill-rule:evenodd; clip-rule:evenodd" xmlns:xlink="http://www.w3.org/1999/xlink">
<g><path style="opacity:0.831" fill="#000000" d="M 57.5,7.5 C 59.8568,7.33669 62.1902,7.50335 64.5,8C 79.7153,15.1079 95.0487,21.9412 110.5,28.5C 111.666,39.1511 111.832,49.8177 111,60.5C 109.062,61.8602 107.396,61.5268 106,59.5C 105.667,51.8333 105.333,44.1667 105,36.5C 90.6681,43.6674 76.0015,50.0007 61,55.5C 45.9066,49.8725 31.0733,43.5392 16.5,36.5C 15.3337,53.4902 15.1671,70.4902 16,87.5C 31.9149,95.8781 48.4149,102.711 65.5,108C 67.3033,112.221 65.8033,114.388 61,114.5C 43.4921,107.912 26.4921,100.245 10,91.5C 9.33333,70.8333 9.33333,50.1667 10,29.5C 25.9607,22.2451 41.794,14.9117 57.5,7.5 Z M 60.5,13.5 C 65.1795,15.5636 69.8462,17.7303 74.5,20C 61.7622,26.368 48.7622,32.2013 35.5,37.5C 30.799,36.2677 26.4656,34.2677 22.5,31.5C 35.2268,25.4683 47.8935,19.4683 60.5,13.5 Z M 82.5,23.5 C 88.2919,25.8959 93.9586,28.5626 99.5,31.5C 86.7422,37.6285 73.9089,43.6285 61,49.5C 55.4234,46.9615 49.9234,44.2949 44.5,41.5C 57.2268,35.4683 69.8935,29.4683 82.5,23.5 Z"/></g>
<g><path style="opacity:0.821" fill="#000000" d="M 84.5,60.5 C 109.06,60.2254 119.56,72.2254 116,96.5C 110.135,110.519 99.6352,116.352 84.5,114C 65.3033,107.118 59.1367,93.951 66,74.5C 70.3714,67.275 76.538,62.6083 84.5,60.5 Z M 86.5,66.5 C 103.826,67.322 111.659,76.322 110,93.5C 104.081,106.876 94.2472,111.043 80.5,106C 68.5686,97.5289 66.4019,87.0289 74,74.5C 77.5789,70.724 81.7456,68.0573 86.5,66.5 Z"/></g>
<g><path style="opacity:0.818" fill="#000000" d="M 98.5,79.5 C 100.167,79.5 101.833,79.5 103.5,79.5C 103.66,81.1992 103.494,82.8659 103,84.5C 98.254,89.7518 93.0873,94.4185 87.5,98.5C 83.9206,96.4288 80.754,93.7621 78,90.5C 77.2765,87.8751 78.2765,86.2084 81,85.5C 83.2983,86.9611 85.4649,88.6278 87.5,90.5C 91.521,87.1456 95.1877,83.479 98.5,79.5 Z"/></g>
</svg>
