<?xml version="1.0" standalone="no"?>
<!DOCTYPE svg PUBLIC "-//W3C//DTD SVG 20010904//EN"
 "http://www.w3.org/TR/2001/REC-SVG-20010904/DTD/svg10.dtd">
<svg version="1.0" xmlns="http://www.w3.org/2000/svg"
 width="500.000000pt" height="500.000000pt" viewBox="0 0 500.000000 500.000000"
 preserveAspectRatio="xMidYMid meet">

<g transform="translate(0.000000,500.000000) scale(0.100000,-0.100000)"
fill="#000000" stroke="none">
<path d="M615 2830 l-330 -330 333 -332 332 -333 67 68 68 67 -265 265 -265
265 268 268 267 267 -63 63 c-34 34 -67 62 -72 62 -6 0 -159 -149 -340 -330z"/>
<path d="M3972 3098 l-62 -63 267 -267 268 -268 -265 -265 -265 -265 68 -67
67 -68 332 333 333 332 -330 330 c-181 181 -334 330 -340 330 -6 0 -38 -28
-73 -62z"/>
<path d="M1920 3100 c-39 -39 -18 -74 55 -95 47 -14 55 -20 55 -41 0 -30 -37
-49 -74 -40 -19 5 -25 12 -23 28 3 26 -21 36 -30 12 -9 -25 31 -54 76 -54 49
0 81 24 81 60 0 32 -16 44 -84 64 -69 20 -56 81 16 74 28 -2 33 -7 30 -25 -2
-16 2 -23 12 -23 23 0 20 37 -3 50 -33 17 -89 12 -111 -10z"/>
<path d="M2441 3085 c-15 -32 -15 -113 0 -152 18 -47 89 -15 76 35 -4 13 -5
12 -6 -4 -1 -25 -26 -49 -41 -39 -5 3 -10 33 -10 65 0 56 1 59 28 63 l27 4
-27 2 c-21 1 -27 7 -30 28 l-3 28 -14 -30z"/>
<path d="M2090 3054 c21 -6 74 -146 65 -173 -3 -12 -15 -21 -25 -21 -13 0 -17
5 -14 15 4 10 0 15 -11 15 -28 0 -13 -35 17 -38 34 -4 50 19 83 119 17 50 32
79 43 82 9 3 -1 5 -23 6 -28 0 -36 -2 -26 -8 13 -8 13 -16 0 -58 -8 -26 -19
-47 -24 -46 -5 1 -17 24 -26 52 -16 46 -16 50 -1 54 9 3 -3 5 -28 5 -25 0 -38
-2 -30 -4z"/>
<path d="M2285 3044 c-23 -23 -15 -36 36 -61 56 -27 61 -58 9 -58 -29 0 -34 3
-32 19 2 11 -1 17 -10 14 -23 -8 -14 -32 15 -42 69 -24 118 43 52 72 -51 22
-60 29 -60 43 0 8 13 15 33 17 27 3 32 0 32 -17 0 -12 5 -21 10 -21 16 0 11
37 -6 44 -28 11 -62 6 -79 -10z"/>
<path d="M2565 3040 c-27 -30 -25 -88 4 -111 13 -11 34 -19 46 -19 24 0 55 23
55 41 0 5 -9 0 -20 -11 -11 -11 -23 -20 -28 -20 -18 0 -52 33 -52 51 0 16 7
19 55 19 30 0 55 3 55 6 0 11 -23 49 -34 56 -21 14 -63 8 -81 -12z m73 -2 c24
-24 13 -38 -28 -38 -43 0 -45 2 -30 31 12 21 40 25 58 7z"/>
<path d="M2713 3053 c14 -4 17 -16 17 -68 0 -52 -3 -64 -17 -68 -10 -3 2 -5
27 -6 36 0 42 2 27 10 -15 9 -18 21 -17 57 4 78 3 82 -27 81 -17 -1 -21 -3
-10 -6z"/>
<path d="M2798 3050 c19 -8 22 -16 22 -69 0 -38 -4 -61 -12 -64 -7 -3 5 -6 27
-6 32 0 36 2 23 10 -21 12 -25 78 -7 111 7 13 7 18 1 14 -6 -3 -13 -2 -17 4
-3 5 -18 10 -33 9 -26 0 -26 -1 -4 -9z"/>
<path d="M2888 3045 c18 -13 22 -26 22 -70 0 -33 -5 -55 -12 -58 -7 -3 5 -6
26 -6 34 -1 37 1 23 12 -11 8 -17 30 -19 72 -3 59 -4 60 -33 63 l-30 3 23 -16z"/>
<path d="M2990 3045 c-19 -23 -5 -44 45 -65 48 -20 54 -30 31 -50 -22 -17 -62
-9 -58 13 2 10 -3 17 -13 17 -26 0 -13 -33 16 -44 33 -11 75 -1 83 20 10 26
-10 50 -54 63 -52 15 -53 44 -1 49 27 3 33 0 28 -12 -3 -8 -2 -18 4 -21 5 -4
12 1 16 10 3 10 0 21 -8 26 -22 14 -75 10 -89 -6z"/>
<path d="M1000 2690 c0 -13 7 -20 20 -20 19 0 20 -7 20 -175 0 -168 -1 -175
-20 -175 -13 0 -20 -7 -20 -20 0 -19 7 -20 123 -20 122 0 124 0 150 28 27 28
27 28 27 187 0 159 0 159 -27 187 -26 28 -28 28 -150 28 -116 0 -123 -1 -123
-20z m232 -37 c16 -14 18 -33 18 -158 0 -96 -4 -145 -12 -153 -7 -7 -40 -12
-80 -12 l-68 0 0 170 0 170 62 0 c43 0 67 -5 80 -17z"/>
<path d="M2540 2690 c0 -13 7 -20 20 -20 19 0 20 -7 20 -175 0 -168 -1 -175
-20 -175 -13 0 -20 -7 -20 -20 0 -18 7 -20 60 -20 53 0 60 2 60 20 0 11 -7 20
-15 20 -12 0 -15 14 -15 70 l0 70 43 0 43 0 33 -67 c20 -41 29 -69 22 -71 -6
-2 -11 -12 -11 -23 0 -16 7 -19 50 -19 42 0 50 3 50 19 0 10 -8 21 -17 23 -11
3 -30 34 -47 72 l-29 67 32 33 c28 29 31 38 31 92 0 55 -3 63 -33 92 l-33 32
-112 0 c-105 0 -112 -1 -112 -20z m222 -37 c21 -19 26 -111 6 -131 -7 -7 -39
-12 -75 -12 l-63 0 0 80 0 80 57 0 c38 0 62 -5 75 -17z"/>
<path d="M1400 2630 c0 -13 7 -20 20 -20 19 0 20 -7 20 -141 0 -132 -1 -141
-20 -146 -11 -3 -20 -14 -20 -24 0 -18 9 -19 135 -19 l135 0 0 55 c0 48 -3 55
-19 55 -15 0 -21 -8 -23 -32 l-3 -33 -67 -3 -68 -3 0 66 0 65 65 0 c58 0 65 2
65 20 0 18 -7 20 -65 20 l-65 0 0 60 0 60 70 0 70 0 0 -35 c0 -28 4 -35 20
-35 18 0 20 7 20 55 l0 55 -135 0 c-128 0 -135 -1 -135 -20z"/>
<path d="M1730 2631 c0 -10 8 -21 18 -23 12 -4 28 -31 46 -84 16 -43 42 -116
58 -162 l30 -83 36 3 35 3 57 160 c39 108 63 161 74 163 9 2 16 12 16 23 0 17
-7 19 -60 19 -53 0 -60 -2 -60 -20 0 -14 7 -20 21 -20 16 0 19 -4 14 -17 -4
-10 -25 -70 -48 -133 -22 -63 -43 -119 -47 -123 -4 -5 -30 54 -57 130 -45 125
-48 138 -31 141 10 2 18 12 18 23 0 17 -7 19 -60 19 -52 0 -60 -2 -60 -19z"/>
<path d="M2977 2622 c-26 -27 -27 -31 -27 -151 0 -118 1 -123 28 -157 27 -34
28 -34 109 -34 78 0 82 1 107 31 25 29 26 35 26 158 0 126 0 127 -28 154 -26
25 -35 27 -108 27 -75 0 -82 -2 -107 -28z m185 -29 c26 -23 27 -217 1 -245
-22 -24 -128 -26 -155 -1 -26 23 -27 217 -1 245 22 24 128 26 155 1z"/>
<path d="M3320 2630 c0 -11 7 -20 15 -20 13 0 15 -21 15 -133 l0 -133 33 -32
c31 -30 38 -32 103 -32 66 0 72 2 102 33 l32 33 0 132 c0 125 1 132 20 132 13
0 20 7 20 20 0 18 -7 20 -60 20 -53 0 -60 -2 -60 -20 0 -13 7 -20 20 -20 19 0
20 -7 20 -123 0 -150 -4 -157 -96 -157 -33 0 -65 5 -72 12 -8 8 -12 54 -12
140 0 121 1 128 20 128 13 0 20 7 20 20 0 18 -7 20 -60 20 -53 0 -60 -2 -60
-20z"/>
<path d="M3776 2617 c-38 -50 -36 -104 7 -145 30 -29 39 -32 93 -32 68 0 84
-11 84 -55 0 -44 -16 -55 -80 -55 -62 0 -90 18 -90 58 0 15 -6 22 -20 22 -30
0 -27 -54 6 -97 24 -32 27 -33 98 -33 72 0 75 1 105 35 44 50 43 99 -2 143
-30 29 -39 32 -93 32 -68 0 -84 10 -84 55 0 44 27 65 82 65 52 0 78 -21 78
-63 0 -20 5 -27 20 -27 17 0 20 7 20 38 0 29 -7 45 -28 65 -25 24 -36 27 -100
27 -69 0 -72 -1 -96 -33z"/>
<path d="M2217 2533 c-9 -2 -24 -17 -31 -32 -13 -24 -13 -28 4 -39 15 -9 21
-7 33 11 16 24 10 25 105 -15 38 -15 76 -4 97 28 16 24 16 26 -2 39 -16 13
-20 12 -32 -5 -17 -25 -37 -25 -79 0 -31 19 -57 23 -95 13z"/>
</g>
</svg>
