<?xml version="1.0" encoding="UTF-8"?>
<!DOCTYPE svg PUBLIC "-//W3C//DTD SVG 1.1//EN" "http://www.w3.org/Graphics/SVG/1.1/DTD/svg11.dtd">
<svg xmlns="http://www.w3.org/2000/svg" version="1.1" width="128px" height="128px" style="shape-rendering:geometricPrecision; text-rendering:geometricPrecision; image-rendering:optimizeQuality; fill-rule:evenodd; clip-rule:evenodd" xmlns:xlink="http://www.w3.org/1999/xlink">
<g><path style="opacity:0.894" fill="#000000" d="M 50.5,0.5 C 54.3438,1.66906 57.3438,4.0024 59.5,7.5C 60.916,5.8608 62.5826,5.02747 64.5,5C 66.7868,7.06977 68.4534,9.56977 69.5,12.5C 85.156,13.3329 100.823,13.8329 116.5,14C 122.617,24.3474 125.45,35.5141 125,47.5C 124.311,48.3567 123.478,49.0233 122.5,49.5C 121.667,74.4933 121.167,99.4933 121,124.5C 86.573,125.496 52.073,125.829 17.5,125.5C 17.5,120.167 17.5,114.833 17.5,109.5C 4.55337,108.373 -0.613295,101.373 2,88.5C 7,74.1667 16.6667,64.5 31,59.5C 31.5664,56.0212 30.2331,53.3545 27,51.5C 25.872,49.6547 25.372,47.6547 25.5,45.5C 22.0388,45.8541 19.5388,44.5208 18,41.5C 18.6129,35.4862 18.4463,29.4862 17.5,23.5C 16.6449,16.2049 19.3116,10.7049 25.5,7C 31.7863,5.8038 38.1196,4.8038 44.5,4C 46.7274,3.05898 48.7274,1.89232 50.5,0.5 Z M 50.5,6.5 C 53.279,8.67668 55.4457,11.3433 57,14.5C 59.1394,13.7636 61.1394,12.7636 63,11.5C 63.3333,11.8333 63.6667,12.1667 64,12.5C 64.8056,18.0838 64.6389,23.5838 63.5,29C 63.1667,29.1667 62.8333,29.3333 62.5,29.5C 61.9708,26.7428 60.9708,24.2428 59.5,22C 53.9961,22.1054 48.8294,20.9388 44,18.5C 42.9914,16.9751 42.4914,15.3084 42.5,13.5C 40.8333,13.5 39.1667,13.5 37.5,13.5C 37.5,14.8333 37.5,16.1667 37.5,17.5C 29.0622,16.9347 24.7288,20.9347 24.5,29.5C 24.1667,29.3333 23.8333,29.1667 23.5,29C 21.2123,22.4163 22.5456,16.7497 27.5,12C 33.3232,10.105 39.3232,9.10496 45.5,9C 47.4913,8.62638 49.158,7.79305 50.5,6.5 Z M 69.5,17.5 C 71.5,17.5 73.5,17.5 75.5,17.5C 76.7789,24.1159 78.4455,30.6159 80.5,37C 76.8484,37.4986 73.1817,37.6653 69.5,37.5C 69.0457,30.8924 69.0457,24.2258 69.5,17.5 Z M 80.5,18.5 C 85.3054,17.5128 90.3054,17.1795 95.5,17.5C 96.7789,24.1159 98.4455,30.6159 100.5,37C 95.5111,37.4993 90.5111,37.6659 85.5,37.5C 84.2778,30.9391 82.6112,24.6058 80.5,18.5 Z M 100.5,18.5 C 104.311,17.3547 108.311,17.1881 112.5,18C 115.715,24.1427 118.049,30.6427 119.5,37.5C 114.833,37.5 110.167,37.5 105.5,37.5C 104.278,30.9391 102.611,24.6058 100.5,18.5 Z M 35.5,21.5 C 37.1992,21.3398 38.8659,21.5065 40.5,22C 41.5505,23.3848 42.8839,24.3848 44.5,25C 48.1667,25.3333 51.8333,25.6667 55.5,26C 56,26.5 56.5,27 57,27.5C 57.829,34.2342 57.4957,40.9008 56,47.5C 51.7169,52.6204 46.2169,54.4537 39.5,53C 33.6667,52.5 30.5,49.3333 30,43.5C 29.1304,37.0828 29.4638,30.7494 31,24.5C 32.4087,23.2189 33.9087,22.2189 35.5,21.5 Z M 23.5,34.5 C 24.6935,34.9704 25.3601,35.9704 25.5,37.5C 24.7092,41.2846 23.7092,41.2846 22.5,37.5C 22.685,36.4163 23.0183,35.4163 23.5,34.5 Z M 61.5,34.5 C 63.4841,34.484 64.4841,35.484 64.5,37.5C 64.5472,39.0004 63.8805,40.0004 62.5,40.5C 61.5344,38.604 61.2011,36.604 61.5,34.5 Z M 68.5,41.5 C 72.8839,41.1744 77.2172,41.5078 81.5,42.5C 81.0233,43.4776 80.3567,44.3109 79.5,45C 75.4589,45.8265 71.4589,45.6599 67.5,44.5C 68.1272,43.5832 68.4606,42.5832 68.5,41.5 Z M 85.5,41.5 C 90.8746,41.1718 96.2079,41.5052 101.5,42.5C 101.023,43.4776 100.357,44.3109 99.5,45C 95.5,45.6667 91.5,45.6667 87.5,45C 86.1772,44.1841 85.5106,43.0174 85.5,41.5 Z M 105.5,41.5 C 110.875,41.1718 116.208,41.5052 121.5,42.5C 121.023,43.4776 120.357,44.3109 119.5,45C 115.5,45.6667 111.5,45.6667 107.5,45C 106.177,44.1841 105.511,43.0174 105.5,41.5 Z M 61.5,47.5 C 62.2891,47.7828 62.9558,48.2828 63.5,49C 81.4969,49.4999 99.4969,49.6666 117.5,49.5C 117.5,73.5 117.5,97.5 117.5,121.5C 101.5,121.5 85.5,121.5 69.5,121.5C 69.5,117.5 69.5,113.5 69.5,109.5C 70.8333,109.5 72.1667,109.5 73.5,109.5C 73.2317,112.119 73.565,114.619 74.5,117C 87.4088,117.822 100.242,117.655 113,116.5C 113.667,95.8333 113.667,75.1667 113,54.5C 104.245,53.3503 95.4117,53.1837 86.5,54C 85.5183,61.747 85.185,69.5803 85.5,77.5C 83.4727,77.6621 81.4727,77.4955 79.5,77C 73.4447,69.1191 65.778,63.2858 56.5,59.5C 55.3861,58.277 55.2195,56.9437 56,55.5C 58.8612,53.4834 60.6946,50.8167 61.5,47.5 Z M 37.5,57.5 C 41.5138,57.3345 45.5138,57.5012 49.5,58C 49.9574,58.414 50.2907,58.914 50.5,59.5C 45.8333,63.5 41.1667,63.5 36.5,59.5C 36.8627,58.8165 37.1961,58.1499 37.5,57.5 Z M 89.5,57.5 C 90.8333,57.5 92.1667,57.5 93.5,57.5C 93.5,60.1667 93.5,62.8333 93.5,65.5C 97.5,65.5 101.5,65.5 105.5,65.5C 105.5,62.8333 105.5,60.1667 105.5,57.5C 106.833,57.5 108.167,57.5 109.5,57.5C 109.5,64.1667 109.5,70.8333 109.5,77.5C 102.833,77.5 96.1667,77.5 89.5,77.5C 89.5,70.8333 89.5,64.1667 89.5,57.5 Z M 97.5,57.5 C 98.8333,57.5 100.167,57.5 101.5,57.5C 101.5,58.8333 101.5,60.1667 101.5,61.5C 100.167,61.5 98.8333,61.5 97.5,61.5C 97.5,60.1667 97.5,58.8333 97.5,57.5 Z M 32.5,64.5 C 35.1834,64.2266 36.6834,65.2266 37,67.5C 34.2264,68.7643 32.7264,67.7643 32.5,64.5 Z M 51.5,64.5 C 55.1276,65.0213 55.2943,66.3546 52,68.5C 48.9484,67.4212 48.7817,66.0878 51.5,64.5 Z M 26.5,66.5 C 28.6404,70.1035 30.807,73.7701 33,77.5C 34.2635,75.393 36.0968,74.393 38.5,74.5C 37.9094,77.9399 36.9094,81.2732 35.5,84.5C 33.6587,85.2304 31.8254,85.8971 30,86.5C 29.5034,88.8098 29.3367,91.1432 29.5,93.5C 26.8333,93.5 24.1667,93.5 21.5,93.5C 21.5,90.8333 21.5,88.1667 21.5,85.5C 20.1667,85.5 18.8333,85.5 17.5,85.5C 17.5,88.1667 17.5,90.8333 17.5,93.5C 14.8333,93.5 12.1667,93.5 9.5,93.5C 9.5,94.8333 9.5,96.1667 9.5,97.5C 14.8333,97.5 20.1667,97.5 25.5,97.5C 25.5,100.167 25.5,102.833 25.5,105.5C 20.2837,105.866 15.2837,105.032 10.5,103C 6.74056,99.2566 5.57389,94.7566 7,89.5C 11.2021,79.8046 17.7021,72.138 26.5,66.5 Z M 59.5,66.5 C 70.8753,72.3694 77.8753,81.5361 80.5,94C 80.7989,97.7349 79.4655,100.735 76.5,103C 71.7163,105.032 66.7163,105.866 61.5,105.5C 61.5,102.833 61.5,100.167 61.5,97.5C 66.8333,97.5 72.1667,97.5 77.5,97.5C 77.5,96.1667 77.5,94.8333 77.5,93.5C 74.8333,93.5 72.1667,93.5 69.5,93.5C 69.5,90.8333 69.5,88.1667 69.5,85.5C 68.1667,85.5 66.8333,85.5 65.5,85.5C 65.5,88.1667 65.5,90.8333 65.5,93.5C 62.8333,93.5 60.1667,93.5 57.5,93.5C 57.6633,91.1432 57.4966,88.8098 57,86.5C 55.1746,85.8971 53.3413,85.2304 51.5,84.5C 50.0906,81.2732 49.0906,77.9399 48.5,74.5C 50.9032,74.393 52.7365,75.393 54,77.5C 56.3716,74.0901 58.2049,70.4234 59.5,66.5 Z M 42.5,69.5 C 44.4646,69.9483 44.7979,70.9483 43.5,72.5C 42.6143,71.675 42.281,70.675 42.5,69.5 Z M 42.5,79.5 C 44.6138,80.784 45.6138,82.784 45.5,85.5C 44.1667,85.5 42.8333,85.5 41.5,85.5C 41.8333,83.5 42.1667,81.5 42.5,79.5 Z M 82.5,81.5 C 83.5,81.5 84.5,81.5 85.5,81.5C 85.7039,90.531 84.7039,90.531 82.5,81.5 Z M 89.5,81.5 C 92.1667,81.5 94.8333,81.5 97.5,81.5C 97.5,82.8333 97.5,84.1667 97.5,85.5C 94.8333,85.5 92.1667,85.5 89.5,85.5C 89.5,84.1667 89.5,82.8333 89.5,81.5 Z M 101.5,81.5 C 104.167,81.5 106.833,81.5 109.5,81.5C 109.5,92.1667 109.5,102.833 109.5,113.5C 98.8333,113.5 88.1667,113.5 77.5,113.5C 77.6719,108.791 79.8386,105.125 84,102.5C 85.2899,98.2695 85.7899,93.9362 85.5,89.5C 90.8333,89.5 96.1667,89.5 101.5,89.5C 101.5,86.8333 101.5,84.1667 101.5,81.5 Z M 33.5,89.5 C 40.1667,89.5 46.8333,89.5 53.5,89.5C 53.5,90.8333 53.5,92.1667 53.5,93.5C 47.8422,93.1578 45.1756,95.8244 45.5,101.5C 45.1756,107.176 47.8422,109.842 53.5,109.5C 53.5,110.833 53.5,112.167 53.5,113.5C 46.8333,113.5 40.1667,113.5 33.5,113.5C 33.5,112.167 33.5,110.833 33.5,109.5C 39.1578,109.842 41.8244,107.176 41.5,101.5C 41.8244,95.8244 39.1578,93.1578 33.5,93.5C 33.5,92.1667 33.5,90.8333 33.5,89.5 Z M 29.5,97.5 C 34.9343,96.9796 36.9343,99.1463 35.5,104C 33.6547,105.128 31.6547,105.628 29.5,105.5C 29.5,102.833 29.5,100.167 29.5,97.5 Z M 53.5,97.5 C 54.8333,97.5 56.1667,97.5 57.5,97.5C 57.5,100.167 57.5,102.833 57.5,105.5C 50.1399,105.274 48.8065,102.608 53.5,97.5 Z M 21.5,109.5 C 24.1667,109.5 26.8333,109.5 29.5,109.5C 29.2317,112.119 29.565,114.619 30.5,117C 39.1667,117.667 47.8333,117.667 56.5,117C 57.435,114.619 57.7683,112.119 57.5,109.5C 60.1667,109.5 62.8333,109.5 65.5,109.5C 65.5,113.5 65.5,117.5 65.5,121.5C 50.8333,121.5 36.1667,121.5 21.5,121.5C 21.5,117.5 21.5,113.5 21.5,109.5 Z"/></g>
<g><path style="opacity:0.766" fill="#000000" d="M 33.5,29.5 C 34.8333,29.5 36.1667,29.5 37.5,29.5C 37.5,30.8333 37.5,32.1667 37.5,33.5C 36.1667,33.5 34.8333,33.5 33.5,33.5C 33.5,32.1667 33.5,30.8333 33.5,29.5 Z"/></g>
<g><path style="opacity:0.766" fill="#000000" d="M 49.5,29.5 C 50.8333,29.5 52.1667,29.5 53.5,29.5C 53.5,30.8333 53.5,32.1667 53.5,33.5C 52.1667,33.5 50.8333,33.5 49.5,33.5C 49.5,32.1667 49.5,30.8333 49.5,29.5 Z"/></g>
<g><path style="opacity:0.868" fill="#000000" d="M 48.5,41.5 C 50.1667,41.5 51.8333,41.5 53.5,41.5C 53.683,43.9363 53.0163,46.103 51.5,48C 46.964,49.3789 42.2973,49.8789 37.5,49.5C 37.5,48.1667 37.5,46.8333 37.5,45.5C 40.1873,45.6641 42.854,45.4974 45.5,45C 47.4257,44.5776 48.4257,43.4109 48.5,41.5 Z"/></g>
</svg>
