<?xml version="1.0" standalone="no"?>
<!DOCTYPE svg PUBLIC "-//W3C//DTD SVG 20010904//EN"
 "http://www.w3.org/TR/2001/REC-SVG-20010904/DTD/svg10.dtd">
<svg version="1.0" xmlns="http://www.w3.org/2000/svg"
 width="128.000000pt" height="128.000000pt" viewBox="0 0 128.000000 128.000000"
 preserveAspectRatio="xMidYMid meet">

<g transform="translate(0.000000,128.000000) scale(0.100000,-0.100000)"
fill="#000000" stroke="none">
<path d="M20 1113 l0 -148 98 -34 c135 -47 189 -76 207 -110 8 -16 24 -32 34
-36 11 -3 23 -15 26 -26 4 -11 18 -25 31 -31 13 -6 24 -15 24 -20 0 -4 9 -17
19 -27 19 -19 18 -19 -26 -52 -201 -151 -165 -463 65 -576 49 -24 69 -28 142
-28 73 0 93 4 142 28 72 35 130 93 165 165 24 49 28 69 28 142 0 71 -4 94 -27
142 -29 63 -99 138 -147 157 -33 14 -32 33 4 49 13 6 26 20 30 31 3 11 15 23
26 26 12 4 27 21 34 39 18 43 80 75 238 122 l127 38 0 148 0 148 -62 0 c-59 0
-68 -4 -206 -82 l-145 -82 -126 34 c-215 56 -211 56 -298 37 -43 -9 -86 -17
-96 -17 -10 0 -54 25 -100 55 -77 52 -85 55 -144 55 l-63 0 0 -147z m197 53
l81 -55 -25 -88 c-14 -48 -26 -90 -28 -92 -2 -1 -45 11 -94 29 l-91 33 0 113
0 114 38 0 c28 0 56 -13 119 -54z m1003 -59 l0 -113 -105 -32 c-57 -18 -110
-32 -118 -32 -13 0 -113 138 -105 145 2 1 59 35 128 74 94 53 134 71 163 71
l37 0 0 -113z m-653 22 l28 -11 -50 -25 c-67 -34 -85 -51 -85 -81 0 -31 36
-72 63 -72 11 0 44 14 73 31 30 17 60 29 68 27 19 -4 196 -166 196 -179 0 -28
-35 -17 -84 25 -58 49 -71 54 -79 32 -4 -9 15 -32 49 -61 57 -49 64 -62 39
-71 -9 -4 -36 12 -69 40 -30 25 -59 46 -64 46 -29 0 -14 -30 36 -77 47 -42 55
-54 44 -64 -18 -19 -44 0 -54 40 -5 18 -19 36 -32 42 -13 6 -29 22 -34 34 -6
13 -20 26 -31 30 -11 3 -23 15 -26 26 -4 11 -18 25 -31 31 -13 6 -24 15 -24
20 0 16 -41 48 -62 48 -13 0 -41 -18 -64 -41 -41 -40 -42 -41 -66 -25 l-25 16
27 98 26 97 65 17 c76 20 127 22 166 7z m198 -53 l90 -24 47 -68 c26 -38 47
-72 47 -75 1 -3 -14 -14 -33 -24 l-35 -19 -76 70 c-88 80 -123 104 -149 104
-10 0 -43 -14 -73 -31 -56 -32 -83 -33 -83 0 0 14 20 29 73 55 39 19 79 36 87
35 8 0 55 -10 105 -23z m-308 -172 c6 -17 -52 -84 -74 -84 -29 0 -25 32 8 66
36 37 56 43 66 18z m60 -60 c6 -17 -52 -84 -74 -84 -29 0 -25 32 8 66 36 37
56 43 66 18z m60 -60 c6 -17 -52 -84 -74 -84 -29 0 -25 32 8 66 36 37 56 43
66 18z m60 -60 c6 -17 -52 -84 -74 -84 -29 0 -25 32 8 66 36 37 56 43 66 18z
m39 -93 c-9 -14 -33 -14 -41 -1 -4 6 -1 18 6 26 11 13 14 13 27 0 8 -8 11 -19
8 -25z m127 -21 c152 -96 180 -313 58 -453 -82 -92 -237 -121 -353 -64 -198
97 -224 378 -48 506 39 28 43 29 65 15 13 -9 34 -14 47 -13 13 2 33 -2 45 -9
39 -21 72 -15 91 18 21 37 36 37 95 0z"/>
<path d="M620 520 c0 -11 -7 -20 -15 -20 -27 0 -65 -47 -65 -78 0 -49 30 -75
90 -82 35 -3 57 -11 64 -23 17 -27 -4 -51 -48 -55 -42 -4 -66 11 -66 39 0 12
-7 19 -20 19 -15 0 -20 -7 -20 -25 0 -29 40 -75 65 -75 8 0 15 -9 15 -20 0
-13 7 -20 20 -20 13 0 20 7 20 20 0 11 7 20 15 20 27 0 65 47 65 78 0 49 -30
75 -90 82 -35 3 -57 11 -64 22 -18 29 4 53 52 56 33 2 44 -1 54 -17 15 -24 48
-28 48 -6 0 9 -11 27 -25 40 -13 14 -31 25 -40 25 -8 0 -15 9 -15 20 0 13 -7
20 -20 20 -13 0 -20 -7 -20 -20z"/>
<path d="M113 625 c-35 -47 -63 -89 -63 -94 0 -5 7 -11 15 -14 9 -4 27 12 52
46 l38 52 3 -208 c2 -198 3 -207 22 -207 19 0 20 9 22 207 l3 208 38 -52 c25
-34 43 -50 52 -46 8 3 15 9 15 14 0 11 -122 178 -130 178 -3 0 -33 -38 -67
-84z"/>
<path d="M1033 625 c-35 -47 -63 -89 -63 -94 0 -5 7 -11 15 -14 9 -4 27 12 52
46 l38 52 3 -208 c2 -198 3 -207 22 -207 19 0 20 9 22 207 l3 208 38 -52 c25
-34 43 -50 52 -46 8 3 15 9 15 14 0 11 -122 178 -130 178 -3 0 -33 -38 -67
-84z"/>
<path d="M160 140 c0 -13 7 -20 20 -20 13 0 20 7 20 20 0 13 -7 20 -20 20 -13
0 -20 -7 -20 -20z"/>
<path d="M1080 140 c0 -13 7 -20 20 -20 13 0 20 7 20 20 0 13 -7 20 -20 20
-13 0 -20 -7 -20 -20z"/>
</g>
</svg>
